<?xml version="1.0" encoding="UTF-8" standalone="no"?>
<svg
   xmlns:dc="http://purl.org/dc/elements/1.1/"
   xmlns:cc="http://creativecommons.org/ns#"
   xmlns:rdf="http://www.w3.org/1999/02/22-rdf-syntax-ns#"
   xmlns:svg="http://www.w3.org/2000/svg"
   xmlns="http://www.w3.org/2000/svg"
   xmlns:sodipodi="http://sodipodi.sourceforge.net/DTD/sodipodi-0.dtd"
   xmlns:inkscape="http://www.inkscape.org/namespaces/inkscape"
   width="104.17927mm"
   height="154.64532mm"
   viewBox="0 0 104.17927 154.64532"
   version="1.1"
   id="svg844"
   inkscape:version="1.0 (1.0+r73+1)"
   sodipodi:docname="machining.svg">
  <defs
     id="defs838" />
  <sodipodi:namedview
     fit-margin-bottom="0"
     fit-margin-right="0"
     fit-margin-left="0"
     fit-margin-top="0"
     id="base"
     pagecolor="#ffffff"
     bordercolor="#666666"
     borderopacity="1.0"
     inkscape:pageopacity="0.0"
     inkscape:pageshadow="2"
     inkscape:zoom="0.49497475"
     inkscape:cx="283.81837"
     inkscape:cy="309.8498"
     inkscape:document-units="mm"
     inkscape:current-layer="layer1"
     inkscape:document-rotation="0"
     showgrid="false"
     inkscape:window-width="1853"
     inkscape:window-height="1025"
     inkscape:window-x="67"
     inkscape:window-y="867"
     inkscape:window-maximized="1" />
  <metadata
     id="metadata841">
    <rdf:RDF>
      <cc:Work
         rdf:about="">
        <dc:format>image/svg+xml</dc:format>
        <dc:type
           rdf:resource="http://purl.org/dc/dcmitype/StillImage" />
        <dc:title></dc:title>
      </cc:Work>
    </rdf:RDF>
  </metadata>
  <g
     transform="translate(-17.07625,-45.834467)"
     inkscape:label="Layer 1"
     inkscape:groupmode="layer"
     id="layer1">
    <path
       style="fill:#2962ff;stroke:none;stroke-width:0.613377;stroke-linejoin:round;stroke-miterlimit:5.2"
       d="m 48.626746,103.63762 c -1.062553,-0.33861 -2.81207,-1.4982 -3.88782,-2.57687 -1.841035,-1.846017 -1.955907,-2.760626 -1.955907,-15.572683 V 71.876584 l 2.973034,-10e-4 2.97304,-0.001 v 8.117904 c 0,7.869237 0.06307,8.124964 2.05826,8.348463 2.03273,0.227702 2.058254,0.127033 2.058254,-8.117045 V 71.876281 H 74.342964 95.84032 v 12.649686 c 0,20.105713 0.359734,19.839433 -26.711918,19.772753 -10.213358,-0.0251 -19.439103,-0.32278 -20.501656,-0.6614 z m 4.218861,-10.165769 c 0,-2.632294 -0.213056,-2.912376 -2.058254,-2.70568 -1.653311,0.185201 -2.114117,0.762884 -2.342177,2.93624 -0.260269,2.480373 -0.08887,2.705685 2.05826,2.705685 2.129352,0 2.342171,-0.266803 2.342171,-2.936245 z"
       id="path860" />
    <path
       style="fill:#2962ff;stroke:#0000d7;stroke-width:0.153345;stroke-linejoin:round;stroke-miterlimit:5.2"
       d="M 34.38099,68.383323 C 34.32858,68.342013 34.2857,67.022968 34.2857,65.452169 v -2.855996 h 34.761679 34.761681 v 2.886062 c 0,2.188125 -0.0691,2.88627 -0.28587,2.886941 -18.444947,0.05688 -69.074895,0.06723 -69.1422,0.01414 z"
       id="path864" />
    <path
       style="fill:#2962ff;stroke:#0000d7;stroke-width:0.153345;stroke-linejoin:round;stroke-miterlimit:5.2"
       d="m 29.766185,52.630248 0.05996,-6.719108 h 39.221238 39.221237 l 0.0599,6.719108 0.0599,6.719108 H 69.047379 29.706228 Z"
       id="path866" />
    <path
       style="fill:#2962ff;stroke:#0000d7;stroke-width:0.153345;stroke-linejoin:round;stroke-miterlimit:5.2"
       d="m 56.50006,115.16952 c -0.423238,-0.14493 -0.96353,-0.26351 -1.200651,-0.26351 -0.237126,0 -0.431132,-0.0757 -0.431132,-0.16822 0,-0.0925 -0.180098,-0.21408 -0.400217,-0.27013 -0.464111,-0.11819 -1.873347,-1.13718 -2.278341,-1.64744 -0.970125,-1.22228 -1.194112,-1.83852 -1.257955,-3.46094 -0.03612,-0.91773 0.01153,-1.66907 0.105862,-1.66964 0.233829,-0.002 35.303022,-0.002 35.733642,9e-5 0.262715,0.001 0.34304,0.23094 0.34304,0.98257 0,0.53979 -0.09104,1.02582 -0.202304,1.08006 -0.111274,0.0542 -0.271264,0.4613 -0.355547,0.90459 -0.08428,0.44329 -0.301155,1.03277 -0.481937,1.30996 -0.720595,1.10488 -3.322875,2.9391 -4.169798,2.9391 -0.250529,0 -0.750288,0.12126 -1.110566,0.26946 -0.965214,0.39704 -23.133103,0.39161 -24.294096,-0.006 z"
       id="path868" />
    <path
       style="fill:#2962ff;stroke:#0000d7;stroke-width:0.153345;stroke-linejoin:round;stroke-miterlimit:5.2"
       d="m 57.897424,136.95732 0.05821,-18.7143 10.519981,-0.05 c 5.785988,-0.0275 10.751538,-0.006 11.034545,0.0485 l 0.514564,0.0986 v 9.81872 c 0,7.26058 -0.0716,9.94267 -0.274837,10.29448 -0.291627,0.50483 -21.363287,17.21834 -21.708127,17.21834 -0.116748,0 -0.177926,-7.93049 -0.144366,-18.71431 z"
       id="path870" />
    <path
       style="fill:#2962ff;stroke:#0000d7;stroke-width:0.153345;stroke-linejoin:round;stroke-miterlimit:5.2"
       d="m 58.071432,168.17919 -0.0013,-3.99708 10.812595,-8.58434 c 5.946932,-4.72139 10.886747,-8.58434 10.977375,-8.58434 0.09063,0 0.164774,1.76208 0.164774,3.91573 v 3.91572 l -10.975954,8.66569 -10.975953,8.6657 z"
       id="path872" />
    <path
       style="fill:#2962ff;stroke:#0000d7;stroke-width:0.153345;stroke-linejoin:round;stroke-miterlimit:5.2"
       d="m 57.947627,181.45553 c -0.08216,-0.10485 -0.09093,-0.3743 -0.01953,-0.59879 0.104575,-0.32863 21.245956,-17.24846 21.552004,-17.24846 0.04796,0 0.08723,1.61508 0.08723,3.58906 v 3.58906 l -6.752194,5.29381 c -3.71371,2.91159 -6.929737,5.34933 -7.146731,5.4172 -0.66525,0.20806 -7.554241,0.17069 -7.720815,-0.0419 z"
       id="path874" />
    <path
       style="fill:#2962ff;stroke:#0000d7;stroke-width:0.153345;stroke-linejoin:round;stroke-miterlimit:5.2"
       d="m 93.895356,168.47823 c -0.758759,-0.52546 -1.233685,-1.26238 -0.81356,-1.26238 0.114007,0 0.207286,-0.0812 0.207286,-0.18037 0,-0.17324 0.815008,-0.9019 1.008771,-0.9019 0.05168,0 2.135678,-1.58326 4.631077,-3.51835 3.01247,-2.33606 4.67769,-3.50287 4.95552,-3.47229 0.24937,0.0274 0.74765,0.51979 1.23324,1.21852 0.44815,0.64486 0.90305,1.19952 1.01091,1.23259 0.10786,0.0331 0.19611,0.21091 0.19611,0.39521 0,0.18429 0.10926,0.38834 0.2428,0.45343 0.13355,0.0651 0.33912,0.29311 0.45685,0.50669 0.11772,0.21358 0.33817,0.52509 0.48989,0.69225 0.35118,0.3869 -0.15783,1.2293 -0.74279,1.2293 -0.21491,0 -0.51886,0.12175 -0.67544,0.27057 -0.15659,0.14881 -0.4152,0.27057 -0.57468,0.27057 -0.25638,0 -4.9385,1.75261 -5.82879,2.18183 -0.188678,0.091 -0.497415,0.21551 -0.686087,0.27676 -0.188671,0.0613 -0.968652,0.34484 -1.73329,0.63018 -1.76616,0.65908 -2.399559,0.65485 -3.377817,-0.0226 z"
       id="path878" />
    <path
       style="fill:#2962ff;stroke:#0000d7;stroke-width:0.306689;stroke-linejoin:round;stroke-miterlimit:5.2"
       d="m 17.270894,200.0559 c -0.002,-0.14881 -0.0121,-6.19601 -0.02246,-13.43822 l -0.01884,-13.16765 h 14.087219 14.087218 l 0.124413,6.75757 0.124406,6.75758 22.69259,0.0968 c 18.095674,0.0772 22.865374,0.002 23.54555,-0.37458 0.778457,-0.43023 0.852961,-1.03681 0.852961,-6.94458 v -6.47318 h 14.179109 14.17911 v 13.5284 13.52841 H 69.188345 c -28.552607,0 -51.915457,-0.12175 -51.91745,-0.27057 z"
       id="path880" />
    <path
       style="fill:#2962ff;stroke:#0000d7;stroke-width:0.153345;stroke-linejoin:round;stroke-miterlimit:5.2"
       d="m 44.909546,167.25042 c -0.07282,-0.0929 -0.413356,-0.28301 -0.756762,-0.42241 -1.890085,-0.76726 -2.694643,-1.11326 -2.79697,-1.20284 -0.06288,-0.055 -0.577452,-0.28726 -1.143474,-0.516 -0.566021,-0.22875 -1.543693,-0.65712 -2.172605,-0.95193 -0.628912,-0.29482 -1.398664,-0.61998 -1.710561,-0.72259 -0.311895,-0.1026 -0.620634,-0.24235 -0.686085,-0.31055 -0.06545,-0.0682 -0.530654,-0.28615 -1.033784,-0.48433 -0.503129,-0.19817 -1.043422,-0.45618 -1.20065,-0.57334 -0.392245,-0.29229 -0.359527,-1.0483 0.05718,-1.32107 0.188673,-0.1235 0.343043,-0.33636 0.343043,-0.47303 0,-0.13667 0.07951,-0.24848 0.176688,-0.24848 0.09718,0 0.379205,-0.30439 0.626723,-0.67642 0.247519,-0.37203 0.537511,-0.72634 0.644427,-0.78734 0.228866,-0.13059 0.772217,-0.84281 0.972343,-1.27454 0.321817,-0.69426 1.317059,-0.50638 2.005306,0.37855 0.199238,0.25617 0.648605,0.71825 0.998593,1.02683 0.34999,0.30857 0.99654,0.90568 1.436779,1.3269 0.440238,0.42121 1.006253,0.9559 1.25782,1.18818 0.251566,0.23228 0.714672,0.68413 1.029127,1.00411 0.314461,0.31998 0.830754,0.79096 1.147328,1.04664 1.685207,1.361 2.054406,1.91113 2.054406,3.06121 0,1.04748 -0.02734,1.10141 -0.558242,1.10141 -0.307027,0 -0.617813,-0.076 -0.690627,-0.16896 z"
       id="path882" />
    <path
       style="fill:#2962ff;stroke:#0000d7;stroke-width:0.153345;stroke-linejoin:round;stroke-miterlimit:5.2"
       d="m 51.004143,162.36175 c -0.275285,-0.20228 -0.501149,-0.46609 -0.501923,-0.58624 -6.41e-4,-0.12014 -0.145449,-0.43619 -0.321493,-0.70233 -0.176044,-0.26614 -0.389408,-0.73287 -0.474151,-1.03718 -0.08474,-0.30431 -0.248807,-0.55329 -0.364594,-0.55329 -0.115788,0 -0.210527,-0.16767 -0.210527,-0.37261 0,-0.20494 -0.113418,-0.53977 -0.252041,-0.74407 -0.398897,-0.58788 0.123254,-1.16589 1.172796,-1.29826 0.478748,-0.0604 0.906769,-0.19573 0.951164,-0.30077 0.04438,-0.10505 0.249358,-0.13995 0.455479,-0.0776 0.318047,0.0963 0.387589,0.51408 0.45957,2.7611 0.111293,3.4742 0.06263,3.62908 -0.91428,2.91122 z"
       id="path884" />
    <path
       style="fill:#2962ff;stroke:#0000d7;stroke-width:0.153345;stroke-linejoin:round;stroke-miterlimit:5.2"
       d="m 88.279029,162.68444 c 0.341394,-2.32666 0.654408,-3.84604 0.875033,-4.24739 0.125265,-0.22789 0.227759,-0.76106 0.227759,-1.18482 0,-0.73952 0.585847,-2.63974 0.813842,-2.63974 0.06051,0 0.517593,0.20292 1.015725,0.45094 0.498125,0.24802 1.049502,0.45095 1.225271,0.45095 0.175775,0 0.447705,0.12176 0.604289,0.27057 0.156584,0.14881 0.477923,0.27057 0.714089,0.27057 0.326852,0 0.429385,0.13229 0.429385,0.55402 0,0.30471 -0.154369,0.67577 -0.34304,0.82459 -0.188672,0.14881 -0.343041,0.4271 -0.343041,0.61844 0,0.19133 -0.08619,0.34787 -0.191534,0.34787 -0.105343,0 -0.430806,0.44644 -0.723252,0.99208 -0.29244,0.54565 -0.617903,0.99209 -0.723246,0.99209 -0.105344,0 -0.191534,0.1524 -0.191534,0.33867 0,0.18627 -0.154369,0.43972 -0.343041,0.56322 -0.188671,0.1235 -0.343046,0.36702 -0.343046,0.54114 0,0.17412 -0.154368,0.41763 -0.34304,0.54113 -0.188672,0.12351 -0.34304,0.34365 -0.34304,0.48922 0,0.38682 -0.938832,0.94087 -1.606067,0.94781 -0.573398,0.006 -0.575915,-0.001 -0.411512,-1.12136 z"
       id="path886" />
    <path
       style="fill:#2962ff;stroke:#0000d7;stroke-width:0.153345;stroke-linejoin:round;stroke-miterlimit:5.2"
       d="m 77.066352,181.50553 c -0.133756,-0.0652 0.07134,-0.30727 0.475188,-0.56086 0.390785,-0.24539 1.055414,-0.71034 1.47696,-1.03322 0.421541,-0.3229 0.867484,-0.58707 0.990975,-0.58707 0.325975,0 0.280344,1.93567 -0.04943,2.09641 -0.350154,0.17069 -2.583242,0.23608 -2.893707,0.0847 z"
       id="path888" />
  </g>
</svg>
